<svg width="101" height="20" viewBox="0 0 101 20" fill="none" xmlns="http://www.w3.org/2000/svg">
<mask id="mask0_5246_5886" style="mask-type:luminance" maskUnits="userSpaceOnUse" x="29" y="1" width="72" height="19">
<path d="M100.419 1.03943H29.1104V19.0458H100.419V1.03943Z" fill="white"/>
</mask>
<g mask="url(#mask0_5246_5886)">
<path fill-rule="evenodd" clip-rule="evenodd" d="M40.832 19.0452V17.0867L42.0086 16.4079L43.1852 15.7288V17.0867H69.1273V15.7288L70.3039 16.4079L71.4805 17.0867V19.0452H40.832Z" fill="#111111"/>
</g>
<path d="M14.497 12.21C13.0784 12.21 11.9864 11.776 11.221 10.908C10.4557 10.04 10.073 8.81267 10.073 7.226C10.073 6.218 10.255 5.35 10.619 4.622C10.9924 3.88467 11.529 3.32467 12.229 2.942C12.929 2.55 13.7597 2.354 14.721 2.354C15.813 2.354 16.9377 2.60133 18.095 3.096C18.011 3.936 17.8757 4.86467 17.689 5.882L16.625 5.952L15.659 4.538C15.2484 4.41667 14.7957 4.356 14.301 4.356C13.9277 4.356 13.573 4.38867 13.237 4.454C13.0877 4.74333 12.9664 5.126 12.873 5.602C12.7797 6.078 12.733 6.55867 12.733 7.044C12.733 8.08 12.9197 8.85 13.293 9.354C13.6757 9.84867 14.2777 10.1053 15.099 10.124C15.4257 10.124 15.8364 10.0773 16.331 9.984C16.835 9.88133 17.325 9.75067 17.801 9.592L18.235 11.132C17.7497 11.4493 17.1617 11.7107 16.471 11.916C15.7897 12.112 15.1317 12.21 14.497 12.21ZM19.1688 10.67L20.0228 10.418V7.016C20.0228 6.81067 20.0088 6.68 19.9808 6.624C19.9528 6.55867 19.8781 6.48867 19.7568 6.414L19.1408 6.078L19.1828 5.028C19.3414 4.99067 19.4768 4.96733 19.5888 4.958C20.7181 4.72467 21.5534 4.59867 22.0948 4.58C22.1788 4.82267 22.2581 5.126 22.3328 5.49C22.8928 5.05133 23.3688 4.748 23.7608 4.58H24.5588C24.5494 4.93467 24.5261 5.322 24.4888 5.742C24.4514 6.15267 24.4048 6.484 24.3488 6.736C24.0128 6.71733 23.7654 6.708 23.6068 6.708C23.2148 6.708 22.8088 6.73133 22.3888 6.778V9.956C22.3888 10.152 22.4028 10.2827 22.4308 10.348C22.4588 10.4133 22.5334 10.4833 22.6548 10.558L23.4948 11.006L23.4388 12H19.2388L19.1688 10.67ZM28.1633 15.206C27.4913 14.758 26.894 14.1793 26.3713 13.47L27.9253 11.944L25.8953 6.596C25.7927 6.344 25.7227 6.18067 25.6853 6.106C25.648 6.03133 25.578 5.92867 25.4753 5.798L25.2373 5.49L25.3073 4.678H28.8913L29.0313 5.868L28.2193 6.064L29.3673 9.578L30.6553 6.358C30.674 6.302 30.6833 6.26 30.6833 6.232C30.6833 6.148 30.646 6.092 30.5713 6.064L29.9133 5.784L30.0393 4.678H32.6993L32.8253 5.812L31.0333 9.718C30.3893 11.1273 29.8573 12.2333 29.4373 13.036C29.0173 13.8387 28.5927 14.562 28.1633 15.206ZM33.6033 13.68L34.4713 13.442V7.016C34.4713 6.81067 34.4573 6.68 34.4293 6.624C34.4013 6.55867 34.322 6.48867 34.1913 6.414L33.5613 6.078L33.6313 5.028C33.678 5.01867 33.7247 5.00933 33.7713 5C33.818 4.99067 33.8693 4.98133 33.9253 4.972C34.364 4.888 34.826 4.80867 35.3113 4.734C35.806 4.65 36.212 4.59867 36.5293 4.58C36.6133 4.776 36.6693 5 36.6973 5.252C36.9867 5.01867 37.2947 4.84133 37.6213 4.72C37.9573 4.59867 38.2887 4.538 38.6153 4.538C39.5487 4.538 40.2627 4.86933 40.7573 5.532C41.2613 6.18533 41.5133 7.11867 41.5133 8.332C41.5133 9.592 41.168 10.558 40.4773 11.23C39.7867 11.8927 38.788 12.224 37.4813 12.224C37.3413 12.224 37.122 12.2147 36.8233 12.196V12.966C36.8233 13.1713 36.8373 13.3067 36.8653 13.372C36.8933 13.4373 36.9727 13.5027 37.1033 13.568L37.9293 14.03L37.8733 15.01H33.6733L33.6033 13.68ZM37.8453 10.488C38.284 10.488 38.6387 10.4273 38.9093 10.306C38.984 10.0727 39.0447 9.79267 39.0913 9.466C39.1473 9.13 39.1753 8.81733 39.1753 8.528C39.1753 7.80933 39.0493 7.254 38.7973 6.862C38.5547 6.47 38.214 6.274 37.7753 6.274C37.5047 6.274 37.1873 6.35333 36.8233 6.512V10.32C37.094 10.432 37.4347 10.488 37.8453 10.488ZM45.5336 12.182C44.7123 12.182 44.1056 11.9813 43.7136 11.58C43.3216 11.1693 43.1256 10.5487 43.1256 9.718V6.316H42.1456V5.294L44.6656 2.998L45.4776 3.096V4.678H47.8296V6.33H45.4776V9.214C45.4776 9.662 45.5383 9.96067 45.6596 10.11C45.7903 10.2593 46.0376 10.334 46.4016 10.334C46.7096 10.334 47.139 10.292 47.6896 10.208L47.8576 11.636C47.5216 11.7947 47.1436 11.9253 46.7236 12.028C46.313 12.1307 45.9163 12.182 45.5336 12.182ZM52.1278 12.182C50.9425 12.182 50.0558 11.8787 49.4678 11.272C48.8892 10.6653 48.5998 9.73667 48.5998 8.486C48.5998 7.68333 48.7445 6.98333 49.0338 6.386C49.3325 5.78867 49.7572 5.33133 50.3078 5.014C50.8585 4.69667 51.5072 4.538 52.2538 4.538C54.6712 4.538 55.8798 5.78867 55.8798 8.29C55.8798 9.51267 55.5485 10.4693 54.8858 11.16C54.2325 11.8413 53.3132 12.182 52.1278 12.182ZM52.3518 10.544C52.5385 10.544 52.7018 10.53 52.8418 10.502C52.9818 10.4647 53.1312 10.4087 53.2898 10.334C53.3458 10.1193 53.3925 9.844 53.4298 9.508C53.4672 9.172 53.4858 8.85 53.4858 8.542C53.4858 7.786 53.3645 7.212 53.1218 6.82C52.8885 6.428 52.5385 6.232 52.0718 6.232C51.7638 6.232 51.4512 6.274 51.1338 6.358C51.0685 6.498 51.0172 6.72667 50.9798 7.044C50.9425 7.352 50.9238 7.70667 50.9238 8.108C50.9238 8.892 51.0452 9.494 51.2878 9.914C51.5398 10.334 51.8945 10.544 52.3518 10.544ZM57.5001 7.254L60.9161 6.792H61.6441V8.64H57.5001V7.254ZM65.8289 12.238C65.0916 12.238 64.2376 12.1073 63.2669 11.846C63.3229 10.9313 63.3836 10.2547 63.4489 9.816L64.2469 9.662L65.1289 10.6C65.4369 10.6933 65.7823 10.74 66.1649 10.74C66.3796 10.74 66.5476 10.726 66.6689 10.698C66.6969 10.6233 66.7109 10.5207 66.7109 10.39C66.7109 10.278 66.6829 10.1847 66.6269 10.11C66.5803 10.0353 66.4683 9.94667 66.2909 9.844C66.1136 9.74133 65.8056 9.58267 65.3669 9.368C64.8163 9.07867 64.3963 8.822 64.1069 8.598C63.8176 8.36467 63.6076 8.12667 63.4769 7.884C63.3556 7.64133 63.2949 7.352 63.2949 7.016C63.2949 6.26933 63.5703 5.67667 64.1209 5.238C64.6809 4.79933 65.4369 4.58 66.3889 4.58C66.7809 4.58 67.1916 4.62667 67.6209 4.72C68.0596 4.804 68.4516 4.92067 68.7969 5.07C68.7969 5.67667 68.7549 6.35333 68.6709 7.1L67.9429 7.212L67.0049 6.204C66.7623 6.12933 66.4076 6.092 65.9409 6.092C65.8663 6.092 65.7169 6.10133 65.4929 6.12C65.4649 6.176 65.4509 6.26467 65.4509 6.386C65.4509 6.51667 65.4883 6.63333 65.5629 6.736C65.6376 6.82933 65.7683 6.93667 65.9549 7.058C66.1509 7.17 66.4589 7.33333 66.8789 7.548C67.4949 7.84667 67.9569 8.108 68.2649 8.332C68.5823 8.54667 68.8016 8.766 68.9229 8.99C69.0536 9.214 69.1189 9.48467 69.1189 9.802C69.1189 10.5673 68.8249 11.1647 68.2369 11.594C67.6583 12.0233 66.8556 12.238 65.8289 12.238ZM73.5589 12.168C72.4669 12.168 71.6222 11.8367 71.0249 11.174C70.4369 10.5113 70.1429 9.59667 70.1429 8.43C70.1429 7.618 70.2876 6.92267 70.5769 6.344C70.8662 5.756 71.2769 5.308 71.8089 5C72.3409 4.692 72.9616 4.538 73.6709 4.538C74.7256 4.538 75.5329 4.874 76.0929 5.546C76.6622 6.218 76.9329 7.17467 76.9049 8.416L72.6489 9.2C72.7796 9.592 72.9616 9.88133 73.1949 10.068C73.4376 10.2453 73.7549 10.334 74.1469 10.334C74.4176 10.334 74.7396 10.2967 75.1129 10.222C75.4862 10.138 75.8642 10.026 76.2469 9.886L76.5689 11.272C76.2236 11.5333 75.7756 11.748 75.2249 11.916C74.6742 12.084 74.1189 12.168 73.5589 12.168ZM74.6089 7.24C74.5902 6.88533 74.4876 6.62867 74.3009 6.47C74.1236 6.302 73.8716 6.218 73.5449 6.218C73.2742 6.218 73.0176 6.25533 72.7749 6.33C72.5789 6.78733 72.4902 7.282 72.5089 7.814L74.6089 7.24ZM77.7377 10.656L78.6057 10.404V7.016C78.6057 6.81067 78.5917 6.68 78.5637 6.624C78.5357 6.55867 78.461 6.48867 78.3397 6.414L77.7237 6.078L77.7657 5.028L78.0737 4.972C79.2963 4.72933 80.1783 4.59867 80.7197 4.58C80.7943 4.776 80.855 4.99067 80.9017 5.224C81.471 4.96267 81.933 4.78533 82.2877 4.692C82.6517 4.58933 82.9923 4.538 83.3097 4.538C84.7937 4.538 85.5357 5.42467 85.5357 7.198V9.942C85.5357 10.138 85.5497 10.2687 85.5777 10.334C85.6057 10.3993 85.685 10.4693 85.8157 10.544L86.4877 10.936L86.4317 11.986H82.5677L82.4977 10.656L83.1837 10.46V7.814C83.1837 7.394 83.1697 7.1 83.1417 6.932C83.1137 6.764 83.0343 6.63333 82.9037 6.54C82.7823 6.44667 82.563 6.4 82.2457 6.4C81.9097 6.4 81.485 6.45133 80.9717 6.554V9.942C80.9717 10.138 80.9857 10.2687 81.0137 10.334C81.0417 10.3993 81.1163 10.4693 81.2377 10.544L81.9237 10.936L81.8677 11.986H77.8077L77.7377 10.656ZM89.8219 12.182C88.9259 12.182 88.2259 11.846 87.7219 11.174C87.2179 10.502 86.9659 9.60133 86.9659 8.472C86.9659 7.17467 87.3065 6.19467 87.9879 5.532C88.6785 4.86933 89.6585 4.538 90.9279 4.538C91.0025 4.538 91.2452 4.54733 91.6559 4.566V3.726C91.6559 3.52067 91.6419 3.38533 91.6139 3.32C91.5859 3.25467 91.5065 3.18467 91.3759 3.11L90.7459 2.788L90.8159 1.724C91.7119 1.56533 92.3745 1.458 92.8039 1.402C93.2332 1.33667 93.5739 1.29933 93.8259 1.29C93.9099 1.50467 93.9705 1.74733 94.0079 2.018V9.984C94.0079 10.152 94.0219 10.2687 94.0499 10.334C94.0872 10.3993 94.1665 10.4647 94.2879 10.53L94.8199 10.852L94.7639 11.72C93.8492 11.9533 92.9532 12.0933 92.0759 12.14C92.0105 11.9627 91.9452 11.748 91.8799 11.496C91.2452 11.9533 90.5592 12.182 89.8219 12.182ZM90.6339 10.39C90.9419 10.39 91.2872 10.2873 91.6699 10.082V6.456C91.3899 6.33467 91.0305 6.274 90.5919 6.274C90.2372 6.274 89.8965 6.32067 89.5699 6.414C89.4952 6.59133 89.4345 6.834 89.3879 7.142C89.3505 7.45 89.3319 7.79067 89.3319 8.164C89.3319 8.92933 89.4345 9.494 89.6399 9.858C89.8545 10.2127 90.1859 10.39 90.6339 10.39Z" fill="black"/>
</svg>
