<svg width="204" height="204" viewBox="0 0 204 204" fill="none" xmlns="http://www.w3.org/2000/svg">
<path d="M0 0H8.16V8.16H0V0ZM8.16 0H16.32V8.16H8.16V0ZM16.32 0H24.48V8.16H16.32V0ZM24.48 0H32.64V8.16H24.48V0ZM32.64 0H40.8V8.16H32.64V0ZM40.8 0H48.96V8.16H40.8V0ZM48.96 0H57.12V8.16H48.96V0ZM89.76 0H97.92V8.16H89.76V0ZM114.24 0H122.4V8.16H114.24V0ZM122.4 0H130.56V8.16H122.4V0ZM130.56 0H138.72V8.16H130.56V0ZM146.88 0H155.04V8.16H146.88V0ZM155.04 0H163.2V8.16H155.04V0ZM163.2 0H171.36V8.16H163.2V0ZM171.36 0H179.52V8.16H171.36V0ZM179.52 0H187.68V8.16H179.52V0ZM187.68 0H195.84V8.16H187.68V0ZM195.84 0H204V8.16H195.84V0ZM0 8.16H8.16V16.32H0V8.16ZM48.96 8.16H57.12V16.32H48.96V8.16ZM73.44 8.16H81.6V16.32H73.44V8.16ZM106.08 8.16H114.24V16.32H106.08V8.16ZM114.24 8.16H122.4V16.32H114.24V8.16ZM130.56 8.16H138.72V16.32H130.56V8.16ZM146.88 8.16H155.04V16.32H146.88V8.16ZM195.84 8.16H204V16.32H195.84V8.16ZM0 16.32H8.16V24.48H0V16.32ZM16.32 16.32H24.48V24.48H16.32V16.32ZM24.48 16.32H32.64V24.48H24.48V16.32ZM32.64 16.32H40.8V24.48H32.64V16.32ZM48.96 16.32H57.12V24.48H48.96V16.32ZM73.44 16.32H81.6V24.48H73.44V16.32ZM81.6 16.32H89.76V24.48H81.6V16.32ZM97.92 16.32H106.08V24.48H97.92V16.32ZM114.24 16.32H122.4V24.48H114.24V16.32ZM122.4 16.32H130.56V24.48H122.4V16.32ZM146.88 16.32H155.04V24.48H146.88V16.32ZM163.2 16.32H171.36V24.48H163.2V16.32ZM171.36 16.32H179.52V24.48H171.36V16.32ZM179.52 16.32H187.68V24.48H179.52V16.32ZM195.84 16.32H204V24.48H195.84V16.32ZM0 24.48H8.16V32.64H0V24.48ZM16.32 24.48H24.48V32.64H16.32V24.48ZM24.48 24.48H32.64V32.64H24.48V24.48ZM32.64 24.48H40.8V32.64H32.64V24.48ZM48.96 24.48H57.12V32.64H48.96V24.48ZM65.28 24.48H73.44V32.64H65.28V24.48ZM73.44 24.48H81.6V32.64H73.44V24.48ZM97.92 24.48H106.08V32.64H97.92V24.48ZM114.24 24.48H122.4V32.64H114.24V24.48ZM122.4 24.48H130.56V32.64H122.4V24.48ZM146.88 24.48H155.04V32.64H146.88V24.48ZM163.2 24.48H171.36V32.64H163.2V24.48ZM171.36 24.48H179.52V32.64H171.36V24.48ZM179.52 24.48H187.68V32.64H179.52V24.48ZM195.84 24.48H204V32.64H195.84V24.48ZM0 32.64H8.16V40.8H0V32.64ZM16.32 32.64H24.48V40.8H16.32V32.64ZM24.48 32.64H32.64V40.8H24.48V32.64ZM32.64 32.64H40.8V40.8H32.64V32.64ZM48.96 32.64H57.12V40.8H48.96V32.64ZM81.6 32.64H89.76V40.8H81.6V32.64ZM89.76 32.64H97.92V40.8H89.76V32.64ZM97.92 32.64H106.08V40.8H97.92V32.64ZM106.08 32.64H114.24V40.8H106.08V32.64ZM114.24 32.64H122.4V40.8H114.24V32.64ZM146.88 32.64H155.04V40.8H146.88V32.64ZM163.2 32.64H171.36V40.8H163.2V32.64ZM171.36 32.64H179.52V40.8H171.36V32.64ZM179.52 32.64H187.68V40.8H179.52V32.64ZM195.84 32.64H204V40.8H195.84V32.64ZM0 40.8H8.16V48.96H0V40.8ZM48.96 40.8H57.12V48.96H48.96V40.8ZM65.28 40.8H73.44V48.96H65.28V40.8ZM89.76 40.8H97.92V48.96H89.76V40.8ZM130.56 40.8H138.72V48.96H130.56V40.8ZM146.88 40.8H155.04V48.96H146.88V40.8ZM195.84 40.8H204V48.96H195.84V40.8ZM0 48.96H8.16V57.12H0V48.96ZM8.16 48.96H16.32V57.12H8.16V48.96ZM16.32 48.96H24.48V57.12H16.32V48.96ZM24.48 48.96H32.64V57.12H24.48V48.96ZM32.64 48.96H40.8V57.12H32.64V48.96ZM40.8 48.96H48.96V57.12H40.8V48.96ZM48.96 48.96H57.12V57.12H48.96V48.96ZM65.28 48.96H73.44V57.12H65.28V48.96ZM81.6 48.96H89.76V57.12H81.6V48.96ZM97.92 48.96H106.08V57.12H97.92V48.96ZM114.24 48.96H122.4V57.12H114.24V48.96ZM130.56 48.96H138.72V57.12H130.56V48.96ZM146.88 48.96H155.04V57.12H146.88V48.96ZM155.04 48.96H163.2V57.12H155.04V48.96ZM163.2 48.96H171.36V57.12H163.2V48.96ZM171.36 48.96H179.52V57.12H171.36V48.96ZM179.52 48.96H187.68V57.12H179.52V48.96ZM187.68 48.96H195.84V57.12H187.68V48.96ZM195.84 48.96H204V57.12H195.84V48.96ZM65.28 57.12H73.44V65.28H65.28V57.12ZM73.44 57.12H81.6V65.28H73.44V57.12ZM81.6 57.12H89.76V65.28H81.6V57.12ZM114.24 57.12H122.4V65.28H114.24V57.12ZM122.4 57.12H130.56V65.28H122.4V57.12ZM130.56 57.12H138.72V65.28H130.56V57.12ZM8.16 65.28H16.32V73.44H8.16V65.28ZM16.32 65.28H24.48V73.44H16.32V65.28ZM48.96 65.28H57.12V73.44H48.96V65.28ZM106.08 65.28H114.24V73.44H106.08V65.28ZM114.24 65.28H122.4V73.44H114.24V65.28ZM130.56 65.28H138.72V73.44H130.56V65.28ZM146.88 65.28H155.04V73.44H146.88V65.28ZM155.04 65.28H163.2V73.44H155.04V65.28ZM171.36 65.28H179.52V73.44H171.36V65.28ZM8.16 73.44H16.32V81.6H8.16V73.44ZM16.32 73.44H24.48V81.6H16.32V73.44ZM32.64 73.44H40.8V81.6H32.64V73.44ZM57.12 73.44H65.28V81.6H57.12V73.44ZM81.6 73.44H89.76V81.6H81.6V73.44ZM89.76 73.44H97.92V81.6H89.76V73.44ZM97.92 73.44H106.08V81.6H97.92V73.44ZM106.08 73.44H114.24V81.6H106.08V73.44ZM114.24 73.44H122.4V81.6H114.24V73.44ZM122.4 73.44H130.56V81.6H122.4V73.44ZM130.56 73.44H138.72V81.6H130.56V73.44ZM146.88 73.44H155.04V81.6H146.88V73.44ZM155.04 73.44H163.2V81.6H155.04V73.44ZM171.36 73.44H179.52V81.6H171.36V73.44ZM187.68 73.44H195.84V81.6H187.68V73.44ZM195.84 73.44H204V81.6H195.84V73.44ZM48.96 81.6H57.12V89.76H48.96V81.6ZM89.76 81.6H97.92V89.76H89.76V81.6ZM122.4 81.6H130.56V89.76H122.4V81.6ZM138.72 81.6H146.88V89.76H138.72V81.6ZM155.04 81.6H163.2V89.76H155.04V81.6ZM171.36 81.6H179.52V89.76H171.36V81.6ZM179.52 81.6H187.68V89.76H179.52V81.6ZM195.84 81.6H204V89.76H195.84V81.6ZM0 89.76H8.16V97.92H0V89.76ZM8.16 89.76H16.32V97.92H8.16V89.76ZM32.64 89.76H40.8V97.92H32.64V89.76ZM57.12 89.76H65.28V97.92H57.12V89.76ZM73.44 89.76H81.6V97.92H73.44V89.76ZM81.6 89.76H89.76V97.92H81.6V89.76ZM106.08 89.76H114.24V97.92H106.08V89.76ZM122.4 89.76H130.56V97.92H122.4V89.76ZM138.72 89.76H146.88V97.92H138.72V89.76ZM155.04 89.76H163.2V97.92H155.04V89.76ZM171.36 89.76H179.52V97.92H171.36V89.76ZM0 97.92H8.16V106.08H0V97.92ZM8.16 97.92H16.32V106.08H8.16V97.92ZM24.48 97.92H32.64V106.08H24.48V97.92ZM48.96 97.92H57.12V106.08H48.96V97.92ZM57.12 97.92H65.28V106.08H57.12V97.92ZM65.28 97.92H73.44V106.08H65.28V97.92ZM73.44 97.92H81.6V106.08H73.44V97.92ZM81.6 97.92H89.76V106.08H81.6V97.92ZM106.08 97.92H114.24V106.08H106.08V97.92ZM122.4 97.92H130.56V106.08H122.4V97.92ZM130.56 97.92H138.72V106.08H130.56V97.92ZM146.88 97.92H155.04V106.08H146.88V97.92ZM155.04 97.92H163.2V106.08H155.04V97.92ZM195.84 97.92H204V106.08H195.84V97.92ZM16.32 106.08H24.48V114.24H16.32V106.08ZM24.48 106.08H32.64V114.24H24.48V106.08ZM32.64 106.08H40.8V114.24H32.64V106.08ZM81.6 106.08H89.76V114.24H81.6V106.08ZM89.76 106.08H97.92V114.24H89.76V106.08ZM97.92 106.08H106.08V114.24H97.92V106.08ZM122.4 106.08H130.56V114.24H122.4V106.08ZM130.56 106.08H138.72V114.24H130.56V106.08ZM146.88 106.08H155.04V114.24H146.88V106.08ZM155.04 106.08H163.2V114.24H155.04V106.08ZM187.68 106.08H195.84V114.24H187.68V106.08ZM195.84 106.08H204V114.24H195.84V106.08ZM0 114.24H8.16V122.4H0V114.24ZM8.16 114.24H16.32V122.4H8.16V114.24ZM24.48 114.24H32.64V122.4H24.48V114.24ZM40.8 114.24H48.96V122.4H40.8V114.24ZM48.96 114.24H57.12V122.4H48.96V114.24ZM65.28 114.24H73.44V122.4H65.28V114.24ZM73.44 114.24H81.6V122.4H73.44V114.24ZM81.6 114.24H89.76V122.4H81.6V114.24ZM97.92 114.24H106.08V122.4H97.92V114.24ZM122.4 114.24H130.56V122.4H122.4V114.24ZM130.56 114.24H138.72V122.4H130.56V114.24ZM146.88 114.24H155.04V122.4H146.88V114.24ZM171.36 114.24H179.52V122.4H171.36V114.24ZM179.52 114.24H187.68V122.4H179.52V114.24ZM195.84 114.24H204V122.4H195.84V114.24ZM16.32 122.4H24.48V130.56H16.32V122.4ZM24.48 122.4H32.64V130.56H24.48V122.4ZM32.64 122.4H40.8V130.56H32.64V122.4ZM57.12 122.4H65.28V130.56H57.12V122.4ZM81.6 122.4H89.76V130.56H81.6V122.4ZM114.24 122.4H122.4V130.56H114.24V122.4ZM122.4 122.4H130.56V130.56H122.4V122.4ZM130.56 122.4H138.72V130.56H130.56V122.4ZM138.72 122.4H146.88V130.56H138.72V122.4ZM146.88 122.4H155.04V130.56H146.88V122.4ZM155.04 122.4H163.2V130.56H155.04V122.4ZM163.2 122.4H171.36V130.56H163.2V122.4ZM171.36 122.4H179.52V130.56H171.36V122.4ZM0 130.56H8.16V138.72H0V130.56ZM8.16 130.56H16.32V138.72H8.16V130.56ZM16.32 130.56H24.48V138.72H16.32V130.56ZM32.64 130.56H40.8V138.72H32.64V130.56ZM48.96 130.56H57.12V138.72H48.96V130.56ZM65.28 130.56H73.44V138.72H65.28V130.56ZM89.76 130.56H97.92V138.72H89.76V130.56ZM130.56 130.56H138.72V138.72H130.56V130.56ZM138.72 130.56H146.88V138.72H138.72V130.56ZM146.88 130.56H155.04V138.72H146.88V130.56ZM155.04 130.56H163.2V138.72H155.04V130.56ZM163.2 130.56H171.36V138.72H163.2V130.56ZM187.68 130.56H195.84V138.72H187.68V130.56ZM65.28 138.72H73.44V146.88H65.28V138.72ZM73.44 138.72H81.6V146.88H73.44V138.72ZM81.6 138.72H89.76V146.88H81.6V138.72ZM89.76 138.72H97.92V146.88H89.76V138.72ZM106.08 138.72H114.24V146.88H106.08V138.72ZM114.24 138.72H122.4V146.88H114.24V138.72ZM130.56 138.72H138.72V146.88H130.56V138.72ZM163.2 138.72H171.36V146.88H163.2V138.72ZM195.84 138.72H204V146.88H195.84V138.72ZM0 146.88H8.16V155.04H0V146.88ZM8.16 146.88H16.32V155.04H8.16V146.88ZM16.32 146.88H24.48V155.04H16.32V146.88ZM24.48 146.88H32.64V155.04H24.48V146.88ZM32.64 146.88H40.8V155.04H32.64V146.88ZM40.8 146.88H48.96V155.04H40.8V146.88ZM48.96 146.88H57.12V155.04H48.96V146.88ZM81.6 146.88H89.76V155.04H81.6V146.88ZM89.76 146.88H97.92V155.04H89.76V146.88ZM114.24 146.88H122.4V155.04H114.24V146.88ZM130.56 146.88H138.72V155.04H130.56V146.88ZM146.88 146.88H155.04V155.04H146.88V146.88ZM163.2 146.88H171.36V155.04H163.2V146.88ZM195.84 146.88H204V155.04H195.84V146.88ZM0 155.04H8.16V163.2H0V155.04ZM48.96 155.04H57.12V163.2H48.96V155.04ZM73.44 155.04H81.6V163.2H73.44V155.04ZM81.6 155.04H89.76V163.2H81.6V155.04ZM97.92 155.04H106.08V163.2H97.92V155.04ZM106.08 155.04H114.24V163.2H106.08V155.04ZM130.56 155.04H138.72V163.2H130.56V155.04ZM163.2 155.04H171.36V163.2H163.2V155.04ZM187.68 155.04H195.84V163.2H187.68V155.04ZM0 163.2H8.16V171.36H0V163.2ZM16.32 163.2H24.48V171.36H16.32V163.2ZM24.48 163.2H32.64V171.36H24.48V163.2ZM32.64 163.2H40.8V171.36H32.64V163.2ZM48.96 163.2H57.12V171.36H48.96V163.2ZM73.44 163.2H81.6V171.36H73.44V163.2ZM81.6 163.2H89.76V171.36H81.6V163.2ZM114.24 163.2H122.4V171.36H114.24V163.2ZM122.4 163.2H130.56V171.36H122.4V163.2ZM130.56 163.2H138.72V171.36H130.56V163.2ZM138.72 163.2H146.88V171.36H138.72V163.2ZM146.88 163.2H155.04V171.36H146.88V163.2ZM155.04 163.2H163.2V171.36H155.04V163.2ZM163.2 163.2H171.36V171.36H163.2V163.2ZM187.68 163.2H195.84V171.36H187.68V163.2ZM195.84 163.2H204V171.36H195.84V163.2ZM0 171.36H8.16V179.52H0V171.36ZM16.32 171.36H24.48V179.52H16.32V171.36ZM24.48 171.36H32.64V179.52H24.48V171.36ZM32.64 171.36H40.8V179.52H32.64V171.36ZM48.96 171.36H57.12V179.52H48.96V171.36ZM73.44 171.36H81.6V179.52H73.44V171.36ZM81.6 171.36H89.76V179.52H81.6V171.36ZM89.76 171.36H97.92V179.52H89.76V171.36ZM97.92 171.36H106.08V179.52H97.92V171.36ZM122.4 171.36H130.56V179.52H122.4V171.36ZM138.72 171.36H146.88V179.52H138.72V171.36ZM163.2 171.36H171.36V179.52H163.2V171.36ZM179.52 171.36H187.68V179.52H179.52V171.36ZM187.68 171.36H195.84V179.52H187.68V171.36ZM0 179.52H8.16V187.68H0V179.52ZM16.32 179.52H24.48V187.68H16.32V179.52ZM24.48 179.52H32.64V187.68H24.48V179.52ZM32.64 179.52H40.8V187.68H32.64V179.52ZM48.96 179.52H57.12V187.68H48.96V179.52ZM65.28 179.52H73.44V187.68H65.28V179.52ZM106.08 179.52H114.24V187.68H106.08V179.52ZM114.24 179.52H122.4V187.68H114.24V179.52ZM122.4 179.52H130.56V187.68H122.4V179.52ZM130.56 179.52H138.72V187.68H130.56V179.52ZM138.72 179.52H146.88V187.68H138.72V179.52ZM155.04 179.52H163.2V187.68H155.04V179.52ZM163.2 179.52H171.36V187.68H163.2V179.52ZM171.36 179.52H179.52V187.68H171.36V179.52ZM187.68 179.52H195.84V187.68H187.68V179.52ZM195.84 179.52H204V187.68H195.84V179.52ZM0 187.68H8.16V195.84H0V187.68ZM48.96 187.68H57.12V195.84H48.96V187.68ZM65.28 187.68H73.44V195.84H65.28V187.68ZM73.44 187.68H81.6V195.84H73.44V187.68ZM81.6 187.68H89.76V195.84H81.6V187.68ZM106.08 187.68H114.24V195.84H106.08V187.68ZM130.56 187.68H138.72V195.84H130.56V187.68ZM138.72 187.68H146.88V195.84H138.72V187.68ZM146.88 187.68H155.04V195.84H146.88V187.68ZM155.04 187.68H163.2V195.84H155.04V187.68ZM163.2 187.68H171.36V195.84H163.2V187.68ZM0 195.84H8.16V204H0V195.84ZM8.16 195.84H16.32V204H8.16V195.84ZM16.32 195.84H24.48V204H16.32V195.84ZM24.48 195.84H32.64V204H24.48V195.84ZM32.64 195.84H40.8V204H32.64V195.84ZM40.8 195.84H48.96V204H40.8V195.84ZM48.96 195.84H57.12V204H48.96V195.84ZM81.6 195.84H89.76V204H81.6V195.84ZM97.92 195.84H106.08V204H97.92V195.84ZM130.56 195.84H138.72V204H130.56V195.84ZM146.88 195.84H155.04V204H146.88V195.84ZM171.36 195.84H179.52V204H171.36V195.84ZM195.84 195.84H204V204H195.84V195.84Z" fill="black"/>
</svg>
